<svg width="1824" height="350" viewBox="0 0 1824 350" fill="none" xmlns="http://www.w3.org/2000/svg">
<path d="M179.798 138.639C179.798 121.718 174.188 107.642 162.992 96.46C151.796 85.2777 137.709 79.6865 120.756 79.6865C103.802 79.6865 89.7399 85.2777 78.5193 96.46C67.3233 107.642 61.713 121.718 61.713 138.639V202.128H179.774V138.639H179.798ZM0 138.198C0 115.22 5.14479 94.6454 15.4344 76.5231C26.0179 58.3763 40.3989 44.1777 58.5771 33.8782C77.0494 23.2844 97.7755 18.012 120.78 18.012C143.785 18.012 164.364 23.3089 182.518 33.8782C200.99 44.1532 215.371 58.3763 225.66 76.5231C236.244 94.6699 241.56 115.22 241.56 138.198V342.741H179.798V263.827H61.7375V342.741H0V138.173V138.198Z" fill="black"/>
<path d="M464.893 229.348C464.893 212.428 459.283 198.352 448.087 187.169C436.891 175.987 422.804 170.396 405.851 170.396C388.897 170.396 374.835 175.987 363.614 187.169C352.418 198.352 346.808 212.428 346.808 229.348V342.741H285.07V228.907C285.07 205.929 290.215 185.355 300.505 167.232C311.088 149.086 325.469 134.887 343.648 124.588C362.12 113.994 382.846 108.721 405.851 108.721C428.855 108.721 449.434 114.018 467.613 124.588C486.085 134.863 500.441 149.086 510.755 167.232C521.339 185.379 526.655 205.929 526.655 228.907V342.741H464.893V229.348Z" fill="black"/>
<path d="M680.607 350C657.602 350 636.876 344.85 618.404 334.575C600.25 323.981 585.869 309.489 575.261 291.023C564.972 272.582 559.827 251.86 559.827 228.882C559.827 205.905 564.972 185.33 575.261 167.208C585.845 149.061 600.226 134.863 618.404 124.563C636.876 113.969 657.602 108.697 680.607 108.697C703.611 108.697 724.191 113.994 742.344 124.563C760.817 134.838 775.198 149.061 785.487 167.208C796.071 185.355 801.387 205.905 801.387 228.882C801.387 251.86 796.095 272.582 785.487 291.023C775.198 309.464 760.817 323.981 742.344 334.575C724.191 344.85 703.587 350 680.607 350ZM680.607 288.325C697.56 288.325 711.623 282.734 722.843 271.552C734.039 260.37 739.65 246.294 739.65 229.373C739.65 212.452 734.039 198.376 722.843 187.194C711.647 176.012 697.56 170.42 680.607 170.42C663.654 170.42 649.591 176.012 638.371 187.194C627.175 198.376 621.564 212.452 621.564 229.373C621.564 246.294 627.175 260.37 638.371 271.552C649.567 282.734 663.654 288.325 680.607 288.325Z" fill="black"/>
<path d="M1014.38 229.348C1014.38 212.428 1008.77 198.352 997.575 187.169C986.379 175.987 972.292 170.396 955.339 170.396C938.385 170.396 924.323 175.987 913.102 187.169C901.906 198.352 896.296 212.428 896.296 229.348V342.741H834.534V228.907C834.534 205.929 839.679 185.355 849.969 167.232C860.552 149.086 874.933 134.887 893.111 124.588C911.583 113.994 932.31 108.721 955.314 108.721C978.319 108.721 998.898 114.018 1017.08 124.588C1035.55 134.863 1049.9 149.086 1060.22 167.232C1070.83 185.379 1076.12 205.929 1076.12 228.907V342.741H1014.38V229.348Z" fill="black"/>
<path d="M1182.05 342.741H1120.29V115.49L1182.05 115.931V342.741ZM1114.85 38.3904C1114.85 27.208 1118.18 18.1346 1124.85 11.1702C1131.81 4.20574 1140.58 0.748047 1151.18 0.748047C1161.47 1.04232 1170.1 4.81881 1177.05 12.0775C1184.01 19.3362 1187.49 28.2625 1187.49 38.8318C1187.49 50.0141 1184.01 59.0875 1177.05 66.0519C1170.39 73.0164 1161.77 76.4741 1151.18 76.4741C1140.6 76.4741 1132.27 72.8447 1125.31 65.586C1118.36 58.3273 1114.88 49.2539 1114.88 38.3658L1114.85 38.3904Z" fill="black"/>
<path d="M1218.78 228.882C1218.78 205.905 1223.92 185.33 1234.21 167.208C1244.82 149.061 1259.18 134.863 1277.35 124.563C1295.83 113.969 1316.55 108.697 1339.56 108.697C1362.56 108.697 1383.14 113.994 1401.32 124.563C1419.79 134.838 1434.17 149.061 1444.46 167.208C1455.07 185.355 1460.36 205.905 1460.36 228.882C1460.36 240.065 1459.92 248.231 1458.99 253.381H1284.19C1288.13 265.765 1294.94 275.451 1304.62 282.415C1314.3 289.38 1325.96 292.838 1339.58 292.838C1347.45 292.838 1355.31 291.17 1363.2 287.86C1371.38 284.23 1378.19 279.399 1383.63 273.342L1429.49 309.636C1418.88 321.137 1405.12 330.799 1388.16 338.671C1371.21 346.223 1355.02 350 1339.58 350C1316.58 350 1295.85 344.85 1277.38 334.575C1259.22 323.981 1244.84 309.489 1234.24 291.023C1223.95 272.582 1218.8 251.86 1218.8 228.882H1218.78ZM1394.04 202.57C1389.8 191.069 1382.99 182.167 1373.61 175.815C1364.23 169.17 1352.88 165.835 1339.56 165.835C1326.23 165.835 1314.89 169.17 1305.5 175.815C1296.12 182.167 1289.31 191.093 1285.07 202.57H1394.04Z" fill="black"/>
<path d="M1627.81 206.665C1627.81 196.071 1624.33 187.464 1617.38 180.818C1610.71 173.854 1602.09 170.396 1591.5 170.396C1580.92 170.396 1572.59 173.878 1565.63 180.818C1558.68 187.464 1555.2 196.096 1555.2 206.665V342.741H1493.43V206.224C1493.43 187.782 1497.67 171.156 1506.15 156.32C1514.63 141.508 1526.29 129.86 1541.11 121.4C1555.93 112.939 1572.74 108.697 1591.5 108.697C1604.83 108.697 1617.23 110.806 1628.74 115.048C1640.26 119.291 1650.38 125.47 1659.17 133.636C1667.65 125.765 1677.47 119.732 1688.69 115.49C1700.18 111.247 1712.6 109.138 1725.93 109.138C1744.7 109.138 1761.5 113.381 1776.32 121.841C1791.15 130.301 1802.81 141.95 1811.29 156.761C1819.76 171.573 1824 188.199 1824 206.64V343.158H1762.24V207.082C1762.24 196.488 1758.76 187.881 1751.8 181.235C1745.14 174.27 1736.51 170.813 1725.93 170.813C1715.35 170.813 1707.02 174.295 1700.06 181.235C1693.1 187.881 1689.62 196.513 1689.62 207.082V343.158H1627.86V206.64L1627.81 206.665Z" fill="black"/>
</svg>
